# xmcd
#
# Track frame offsets:
#	150
#	20110
#	38124
#	52138
#	65090
#	81241
#	94315
#	115439
#	124142
#	138488
#	153462
#	164528
#	176338
#	192651
#	206524
#	218242
#	234332
#	247475
#	263060
#	274642
#
# Disc length: 3918 seconds
#
# Revision: 0
# Processed by: cddbd v1.4PL0 Copyright (c) Steve Scherf et al.
# Submitted via: dBpowerAMP V4.0
#
DISCID=3a0f4c14
DTITLE=disque4 - CINE
DYEAR=2001
DGENRE=Chanson
TTITLE0=for me and my gal  Judy Garland, Gene Kelly
TTITLE1=the trolley song  Judy Garland
TTITLE2=blues in the night  Judy Garland
TTITLE3=I got the rythm  Judy Garland
TTITLE4=Indian love call   Jeanette McDonald
TTITLE5=Waltz  Jeanette McDonald
TTITLE6=Lullaby of Broadway  Winifred Shaw
TTITLE7=Swanee  Al Jolson
TTITLE8=falling in love again  Marlene Dietrich
TTITLE9=Louise  M.Chevalier
TTITLE10=the continental  Ginger Rogers
TTITLE11=swing high swing low  Dorothy Lamour
TTITLE12=can't help singing  DeannaDurbin
TTITLE13=the more I see you  Dick Haymes
TTITLE14=the last time I saw Paris  Kate Smith
TTITLE15=this year's kisses Alice Faye
TTITLE16=down american way  Carmen Miranda
TTITLE17=Dixiana  Shirley Temple
TTITLE18=I've got a feelin' you're foolin'  Eleanor Powell
TTITLE19=pennies from heaven  Frances Langford
EXTD=
EXTT0=
EXTT1=
EXTT2=
EXTT3=
EXTT4=
EXTT5=
EXTT6=
EXTT7=
EXTT8=
EXTT9=
EXTT10=
EXTT11=
EXTT12=
EXTT13=
EXTT14=
EXTT15=
EXTT16=
EXTT17=
EXTT18=
EXTT19=
PLAYORDER=
